<?xml version="1.0" standalone="no"?>
<!DOCTYPE svg PUBLIC "-//W3C//DTD SVG 20010904//EN"
    "http://www.w3.org/TR/2001/REC-SVG-20010904/DTD/svg10.dtd">
<svg version="1.0" xmlns="http://www.w3.org/2000/svg"
    width="150.000000pt" height="150.000000pt" viewBox="0 0 150.000000 150.000000"
    preserveAspectRatio="xMidYMid meet">

    <g transform="translate(0.000000,150.000000) scale(0.100000,-0.100000)"
        fill="#000000" stroke="none">
        <path d="M474 1308 c3 -35 9 -107 13 -160 l6 -98 27 0 c24 0 28 5 34 38 3 20
6 59 6 85 0 30 4 46 10 42 6 -3 10 -32 10 -63 0 -80 8 -102 35 -102 26 0 29
15 40 190 4 52 9 103 11 113 4 12 0 17 -14 17 -16 0 -20 -9 -26 -52 -3 -29 -6
-75 -7 -103 -1 -44 -2 -46 -9 -20 -4 17 -8 53 -9 80 -2 70 -10 95 -32 95 -20
0 -22 -11 -36 -135 -4 -38 -8 -59 -10 -45 -1 14 -5 60 -8 103 -6 69 -9 77 -27
77 -20 0 -20 -4 -14 -62z"/>
        <path d="M720 1210 l0 -160 55 0 c48 0 55 2 55 20 0 16 -7 20 -35 20 l-35 0 0
50 c0 47 2 50 25 50 20 0 25 5 25 25 0 20 -5 25 -25 25 -23 0 -25 4 -25 45 0
45 0 45 35 45 28 0 35 4 35 20 0 18 -7 20 -55 20 l-55 0 0 -160z"/>
        <path d="M880 1210 c0 -153 1 -160 20 -160 18 0 20 7 20 71 0 62 2 70 18 67
14 -3 18 -16 20 -71 3 -62 5 -67 25 -67 21 0 22 3 19 72 -2 40 -8 78 -13 85
-7 7 -6 14 1 18 14 9 13 118 -2 133 -7 7 -34 12 -60 12 l-48 0 0 -160z m78 76
c2 -24 -2 -42 -9 -47 -21 -13 -29 0 -29 47 0 38 3 45 18 42 12 -2 18 -15 20
-42z"/>
        <path d="M400 760 c0 -153 1 -160 20 -160 17 0 20 7 20 53 0 57 14 94 23 61 3
-11 10 -40 17 -66 9 -36 17 -48 31 -48 24 0 24 -3 -3 108 -24 99 -24 93 17
195 5 13 2 17 -13 17 -16 0 -26 -14 -44 -62 l-23 -63 -3 63 c-3 54 -6 62 -22
62 -19 0 -20 -8 -20 -160z"/>
        <path d="M594 760 c-19 -151 -19 -160 -3 -160 11 0 20 11 24 30 5 23 12 30 31
30 20 0 24 -5 24 -30 0 -23 4 -30 20 -30 24 0 24 4 5 157 -22 168 -21 163 -53
163 l-28 0 -20 -160z m60 8 c6 -62 5 -66 -13 -61 -11 3 -17 12 -15 21 1 10 6
39 9 65 4 27 8 47 9 45 2 -1 6 -33 10 -70z"/>
        <path d="M760 760 c0 -152 1 -160 20 -160 18 0 20 8 22 103 l3 102 20 -100
c18 -88 23 -100 43 -103 22 -3 22 -3 22 157 0 154 -1 161 -20 161 -18 0 -20
-7 -21 -77 l-1 -78 -16 78 c-15 74 -16 77 -44 77 l-28 0 0 -160z"/>
        <path d="M950 760 c0 -153 1 -160 20 -160 19 0 20 7 21 108 l1 107 21 -105
c20 -93 25 -105 45 -108 l22 -3 0 160 c0 153 -1 161 -20 161 -17 0 -19 -8 -22
-77 l-3 -78 -14 78 c-14 74 -16 77 -43 77 l-28 0 0 -160z"/>
        <path d="M1226 458 c-9 -12 -16 -39 -16 -59 0 -32 3 -36 20 -32 14 4 20 14 20
35 0 23 4 29 18 26 23 -5 20 -55 -8 -120 -12 -27 -19 -56 -16 -64 8 -21 36
-17 36 5 0 11 11 42 25 69 31 61 32 115 5 142 -27 27 -65 26 -84 -2z"/>
        <path d="M160 310 c0 -136 2 -160 15 -160 12 0 15 18 16 98 1 108 13 94 25
-30 5 -56 10 -68 25 -68 13 0 19 10 24 43 21 155 23 158 24 55 1 -91 2 -98 21
-98 19 0 20 7 20 160 l0 160 -29 0 c-32 0 -34 -6 -47 -140 -7 -64 -9 -70 -15
-42 -4 19 -10 67 -14 108 -7 74 -7 74 -36 74 l-29 0 0 -160z"/>
        <path d="M390 310 l0 -160 55 0 c48 0 55 2 55 20 0 16 -7 20 -35 20 l-35 0 0
49 c0 47 2 50 28 53 19 2 28 9 30 26 3 19 -1 22 -27 22 -30 0 -31 1 -31 45 0
45 0 45 35 45 28 0 35 4 35 20 0 18 -7 20 -55 20 l-55 0 0 -160z"/>
        <path d="M550 310 c0 -153 1 -160 20 -160 18 0 20 7 20 70 0 68 1 70 25 70 24
0 25 -2 25 -70 0 -63 2 -70 20 -70 19 0 20 7 20 160 0 153 -1 160 -20 160 -18
0 -20 -7 -20 -66 0 -62 -1 -65 -22 -62 -21 3 -23 9 -26 66 -3 54 -6 62 -22 62
-19 0 -20 -8 -20 -160z"/>
        <path d="M740 310 c0 -153 1 -160 20 -160 18 0 20 7 20 71 0 62 2 70 18 67 14
-3 18 -16 20 -71 3 -60 5 -67 23 -67 19 0 20 5 15 78 -6 100 -6 89 0 148 8 76
-5 94 -66 94 l-50 0 0 -160z m78 76 c3 -36 -8 -55 -30 -56 -5 0 -8 23 -8 51 0
43 3 50 18 47 12 -2 18 -15 20 -42z"/>
        <path d="M920 176 c0 -20 5 -26 21 -26 15 0 20 5 17 22 -5 34 -38 37 -38 4z"/>
        <path d="M1020 176 c0 -20 5 -26 21 -26 15 0 20 5 17 22 -5 34 -38 37 -38 4z"/>
        <path d="M1120 176 c0 -20 5 -26 21 -26 15 0 20 5 17 22 -5 34 -38 37 -38 4z"/>
        <path d="M1247 193 c-15 -15 -7 -43 13 -43 15 0 20 7 20 25 0 24 -18 34 -33
18z"/>
    </g>
</svg>

